<svg height="557" viewBox="0 0 192 557" width="192" xmlns="http://www.w3.org/2000/svg"><path d="m133.619 2.19997v-2.000004h-1.79l-.198 1.779134zm-131.20025 119.20003v-2h-1.999999v2zm0 52h-1.999999v2h1.999999zm115.20025-32h2v-4.667l-3.38 3.219zm0 413.6h-2v2h2zm72 0v2h2v-2zm0-552.80003h2v-2.000004h-2zm-57.988-.22087c-3.986 35.8755-12.523 65.1303-31.7643 85.4456-19.1834 20.2543-49.3558 31.9753-97.44795 31.9753v4c48.70785 0 80.13545-11.879 100.35225-33.2247 20.159-21.2848 28.822-51.6299 32.836-87.75448zm-131.212249 119.4209v52h3.999999v-52zm1.999999 54.000001c49.53845-.000001 82.33475.061999 116.57925-32.552001l-2.759-2.896c-32.955 31.386-64.1587 31.448-113.82025 31.448zm113.20025-34.000001v413.6h4v-413.6zm2 415.6h72v-4h-72zm74-2v-552.80003h-4v552.80003zm-2-554.800034h-56v4.000004h56z" fill="#fff"/></svg>