<svg fill="none" height="568" viewBox="0 0 396 568" width="396" xmlns="http://www.w3.org/2000/svg"><path d="m90.0344 206.8v2h2v-2zm76.7996 121.6-1.005-1.729-.002.001zm-164.79962 237.6h-2.0000039v2h2.0000039zm383.19962 0v2h2v-2zm0-64h2v-2h-2zm-295.9996 0h-2v2h2zm0-1.6-1.9354-.504-.0646.248v.256zm-71.2-293.6h-2v2h2zm74 0c0-37.804 7.1727-72.496 26.0996-97.699 18.846-25.0957 49.591-41.101 97.5-41.101v-4c-48.89 0-80.945 16.3947-100.699 42.699-19.6734 26.197-26.9006 61.905-26.9006 100.101zm123.5996-138.8c41.922 0 67.691 13.8159 83.037 33.047 15.413 19.315 20.563 44.404 20.563 67.353h4c0-23.451-5.249-49.562-21.436-69.8475-16.254-20.3684-43.285-34.5525-86.164-34.5525zm103.6 100.4c0 19.985-3.165 36.039-9.433 49.822-6.266 13.78-15.69 25.409-28.381 36.47-25.509 22.234-63.818 41.878-115.591 71.979l2.011 3.458c51.427-29.899 90.318-49.855 116.208-72.421 13.01-11.339 22.836-23.41 29.394-37.83 6.557-14.417 9.792-31.063 9.792-51.478zm-153.407 158.272c-101.9154 59.384-165.7926239 138.327-165.7926239 239.328h4.0000039c0-98.999 62.52272-176.856 163.80662-235.872zm-163.79262 241.328h383.19962v-4h-383.19962zm385.19962-2v-64h-4v64zm-2-66h-295.9996v4h295.9996zm-293.9996 2v-1.6h-4v1.6zm-.0647-1.096c8.4332-32.359 31.3133-57.465 61.2773-79.929 30.002-22.492 66.739-42.084 102.716-63.66 71.692-42.995 140.071-93.713 140.071-189.715h-4c0 93.598-66.42 143.28-138.128 186.285-35.723 21.424-72.836 41.232-103.059 63.89-30.261 22.686-53.9811 48.48-62.748 82.121zm304.0643-333.304c0-53.357-20.634-95.3124-53.282-123.9046-32.616-28.5648-77.107-43.69543052-124.718-43.69543052v4.00000052c46.789 0 90.299 14.86933 122.083 42.70453 31.752 27.8078 51.917 68.6525 51.917 120.8955zm-178-167.60003052c-68.867 0-119.2525 22.77253052-152.3965 60.17353052-33.1094 37.3621-48.8031 89.0835-48.8031 146.6265h4c0-56.857 15.5063-107.5356 47.7968-143.9736 32.2558-36.399 81.4708-58.82643 149.4028-58.82643zm-199.1996 208.80003052h72v-4h-72z" fill="#fff"/></svg>