<svg fill="none" height="580" viewBox="0 0 420 580" width="420" xmlns="http://www.w3.org/2000/svg"><path d="m89.0656 178.8v2h2v-2zm80.8004 66.4v-2h-2v2zm0 64h-2v2h2zm-95.2004 69.6h2v-2h-2zm-71.99997 0v-2h-2.000004v2zm310.40037-104.8h-2v1.523l1.468.405zm0-1.6-.743-1.857-1.257.503v1.354zm-296.0004-93.6h-2v2h2zm74 0c0-26.96 5.7547-54.581 24.5854-75.461 18.796-20.841 50.964-35.339 104.615-35.339v-4c-54.349 0-87.782 14.702-107.586 36.661-19.769 21.92-25.6144 50.699-25.6144 78.139zm129.2004-110.8c37.204 0 63.057 10.8754 79.602 27.0309 16.555 16.1651 23.998 37.8171 23.998 59.7691h4c0-22.848-7.757-45.596-25.203-62.631-17.455-17.0444-44.401-28.169-82.397-28.169zm103.6 86.8c0 31.512-10.611 53.496-27.964 67.65-17.421 14.209-41.909 20.75-70.036 20.75v4c28.673 0 54.184-6.659 72.564-21.65 18.447-15.046 29.436-38.262 29.436-70.75zm-98 88.4h-56v4h56zm-58 2v64h4v-64zm2 66h59.2v-4h-59.2zm59.2 0c26.682 0 55.404 3.798 77.411 18.078 21.844 14.174 37.389 38.889 37.389 81.522h4c0-43.766-16.056-69.852-39.212-84.878-22.993-14.92-52.67-18.722-79.588-18.722zm114.8 99.6c0 32.866-8.505 57.79-28.39 74.572-19.967 16.85-51.793 25.828-99.21 25.828v4c47.782 0 80.756-9.022 101.79-26.772 21.114-17.818 29.81-44.094 29.81-77.628zm-127.6 100.4c-52.073 0-86.854-13.511-108.647-36.574-21.8121-23.084-30.9534-56.095-30.9534-95.826h-4c0 40.269 9.2588 74.458 32.0464 98.574 22.807 24.137 58.826 37.826 111.554 37.826zm-141.6004-134.4h-71.99997v4h71.99997zm-73.999974 2c0 62.831 19.748574 113.017 57.450674 147.476 37.6767 34.436 93.0187 52.924 163.7497 52.924v-4c-70.07 0-124.3278-18.312-161.0511-51.876-36.6979-33.541-56.14927-82.555-56.14927-144.524zm221.200374 200.4c59.495 0 108.999-14.47 143.667-42.852 34.724-28.43 54.333-70.631 54.333-125.548h-4c0 53.883-19.192 94.882-52.867 122.453-33.733 27.617-82.229 41.947-141.133 41.947zm198-168.4c0-32.659-6.653-61.906-23.363-85.748-16.725-23.864-43.366-42.087-82.906-52.98l-1.063 3.856c38.861 10.707 64.619 28.484 80.694 51.42 16.09 22.957 22.638 51.311 22.638 83.452zm-104.8-136.8v-1.6h-4v1.6zm-1.258.257c28.234-11.294 49.785-26.287 64.269-45.972 14.497-19.704 21.789-43.94 21.789-73.485h-4c0 28.855-7.108 52.219-21.011 71.115-13.917 18.915-34.766 33.522-62.532 44.628zm86.058-119.457c0-49.43-21.095-88.198-54.153-114.5636-33.016-26.3312-77.879-40.23643052-125.447-40.23643052v4.00000052c46.831 0 90.768 13.69483 122.953 39.36363 32.141 25.6343 52.647 63.2664 52.647 111.4364zm-179.6-154.80003052c-68.759 0-120.1 18.90303052-154.2661 50.83893052-34.178 31.9467-50.9343 76.7161-50.9343 127.9611h4c0-50.355 16.4437-93.9857 49.6657-125.0389 33.2337-31.0642 83.4927-49.76113 151.5347-49.76113zm-203.2004 180.80003052h72v-4h-72z" fill="#fff"/></svg>