<svg fill="none" height="557" viewBox="0 0 419 557" width="419" xmlns="http://www.w3.org/2000/svg"><path d="m340.638 555v2h2v-2zm0-129.6v-2h-2v2zm76 0v2h2v-2zm0-64h2v-2h-2zm-76 0h-2v2h2zm0-359.20003h2v-2.000004h-2zm-72 0v-2.000004h-1.007l-.6.808614zm-266.4005 359.20003-1.606416-1.191-.393583.53v.661zm0 64h-1.999999v2h1.999999zm266.4005 0h2v-2h-2zm0 129.6h-2v2h2zm0-452.8h2v-6.0399l-3.605 4.8459zm0 259.2v2h2v-2zm-192.8005 0-1.6047-1.194-2.3756 3.194h3.9803zm266.8005 193.6v-129.6h-4v129.6zm-2-127.6h76v-4h-76zm78-2v-64h-4v64zm-2-66h-76v4h76zm-74 2v-359.20003h-4v359.20003zm-2-361.200034h-72v4.000004h72zm-73.607.808614-266.399916 359.20042 3.212836 2.382 266.40008-359.19964zm-266.793499 360.39142v64h3.999999v-64zm1.999999 66h266.4005v-4h-266.4005zm264.4005-2v129.6h4v-129.6zm2 131.6h72v-4h-72zm-2-454.8v259.2h4v-259.2zm2 257.2h-192.8005v4h192.8005zm-191.1958 3.194 192.7998-259.2-3.209-2.388-192.8002 259.2z" fill="#fff"/></svg>