<svg fill="none" height="602" viewBox="0 0 323 602" width="323" xmlns="http://www.w3.org/2000/svg"><path d="m310.092 282.444s-58.62-42.327-120.499-90.806c-61.88-48.48-122.937-182.46344-65.835-189.02755 57.103-6.56411 103.702 18.99635 66.784 56.63475-36.888 37.6384-62.734 84.3588-41.57 45.0658 21.133-39.2892 64.031-109.91603 15.66-52.658-48.371 57.258-63.303 67.653-39.482 110.559 23.79 42.908 98.862 54.695 96.204 9.809-2.657-44.886-83.866-29.669-142.2335-19.616-58.3677 10.053 3.3221 38.742-42.4863 140.478-45.84002 101.736-7.5929 366.05 32.2047 295.828 39.8291-70.219-39.924-361.747-60.93009-235.397-21.03771 126.354 4.93539 120.656 162.54419 0 157.609-120.656 176.242-192.966 118.412-189.837s-82.98-24.387-47.643-20.249c35.305 4.141 35.02 41.77 37.836 163.894 2.784 122.121-16.45 243.656 29.168 225.27 45.651-18.382-39.798-118.672-65.391-29.739-25.562 88.934-222.3668 108.461-127.523-185.725 94.875-294.1823 176.084 84.072 67.289 196.8-108.827 112.726-67.194-215.416-4.208-234.767 62.987-19.351 21.861 268.085 1.393 187.306-20.469-80.778-88.9599-172.422 128.915-138.896" stroke="#090707" stroke-width="2"/></svg>