<svg fill="none" height="17" viewBox="0 0 83 17" width="83" xmlns="http://www.w3.org/2000/svg"><g clip-rule="evenodd" fill="#dcd9d5" fill-rule="evenodd"><path d="m29.7357 12.4246h7.1521v-7.87307h-7.1521zm11.9704-10.1753c-1.9611-1.580383-4.4499-2.2493-8.395-2.2493-3.8991 0-6.457.694886-8.3952 2.2493-1.6032 1.28912-2.4628 3.4174-2.4628 6.09663 0 3.01357.7903 5.02357 2.4628 6.38487 1.9611 1.5803 4.473 2.2494 8.4672 2.2494 7.3193 0 10.7858-2.7252 10.7858-8.49017 0-2.84642-.8134-4.92564-2.4628-6.24073z"/><path d="m7.28196 12.4246h7.15204v-7.87307h-7.15204zm11.97084-10.1753c-1.9611-1.580383-4.4499-2.2493-8.395-2.2493-3.89909 0-6.45697.694886-8.39498 2.2493-1.603463 1.28912-2.46282 3.4174-2.46282 6.09663 0 3.01357.790276 5.02357 2.46282 6.38487 1.9611 1.5803 4.47297 2.2494 8.46708 2.2494 7.3193 0 10.7857-2.7252 10.7857-8.49017 0-2.84642-.8132-4.92564-2.4628-6.24073z"/><path d="m44.564 12.9177 9.7815-8.34706h-9.3034v-4.065269h18.8459v3.658929l-9.5902 8.2273h9.3991v4.0659h-19.1329z"/><path d="m64.7266.505371h18.1729v4.065269h-12.0743v1.76997h11.9134v4.06599h-11.9134v1.985h12.1746v4.0659h-18.2732z"/></g></svg>